<?xml version="1.0" encoding="UTF-8" standalone="no"?>
<!-- Created with Inkscape (http://www.inkscape.org/) -->
<svg xmlns:i="http://ns.adobe.com/AdobeIllustrator/10.0/" xmlns:dc="http://purl.org/dc/elements/1.1/" xmlns:cc="http://creativecommons.org/ns#" xmlns:rdf="http://www.w3.org/1999/02/22-rdf-syntax-ns#" xmlns:svg="http://www.w3.org/2000/svg" xmlns="http://www.w3.org/2000/svg" xmlns:xlink="http://www.w3.org/1999/xlink" xmlns:sodipodi="http://sodipodi.sourceforge.net/DTD/sodipodi-0.dtd" xmlns:inkscape="http://www.inkscape.org/namespaces/inkscape" inkscape:export-ydpi="240.00000" inkscape:export-xdpi="240.00000" inkscape:export-filename="/home/jimmac/gfx/novell/pdes/trunk/docs/BIGmime-text.png" sodipodi:docname="Text-x-python-alt.svg" sodipodi:docbase="/home/tigert/cvs/freedesktop.org/tango-icon-theme/scalable/mimetypes" inkscape:version="0.46" sodipodi:version="0.32" id="svg249" height="48.000000px" width="48.000000px" inkscape:output_extension="org.inkscape.output.svg.inkscape">
  <defs id="defs3">
    <linearGradient id="linearGradient3702">
      <stop id="stop3704" offset="0" style="stop-color: black; stop-opacity: 0;"/>
      <stop style="stop-color: black; stop-opacity: 1;" offset="0.5" id="stop3710"/>
      <stop id="stop3706" offset="1" style="stop-color: black; stop-opacity: 0;"/>
    </linearGradient>
    <linearGradient inkscape:collect="always" xlink:href="#linearGradient3702" id="linearGradient2092" gradientUnits="userSpaceOnUse" x1="25.058096" y1="47.027729" x2="25.058096" y2="39.999443"/>
    <radialGradient inkscape:collect="always" xlink:href="#linearGradient3688" id="radialGradient2090" gradientUnits="userSpaceOnUse" gradientTransform="matrix(2.00378, 0, 0, 1.4, -20.0119, -104.4)" cx="4.9929786" cy="43.5" fx="4.9929786" fy="43.5" r="2.5"/>
    <linearGradient id="linearGradient3688" inkscape:collect="always">
      <stop id="stop3690" offset="0" style="stop-color: black; stop-opacity: 1;"/>
      <stop id="stop3692" offset="1" style="stop-color: black; stop-opacity: 0;"/>
    </linearGradient>
    <radialGradient inkscape:collect="always" xlink:href="#linearGradient3688" id="radialGradient2088" gradientUnits="userSpaceOnUse" gradientTransform="matrix(2.00378, 0, 0, 1.4, 27.9881, -17.4)" cx="4.9929786" cy="43.5" fx="4.9929786" fy="43.5" r="2.5"/>
    <linearGradient inkscape:collect="always" id="linearGradient4790">
      <stop style="stop-color: rgb(0, 0, 0); stop-opacity: 1;" offset="0" id="stop4792"/>
      <stop style="stop-color: rgb(0, 0, 0); stop-opacity: 0;" offset="1" id="stop4794"/>
    </linearGradient>
    <radialGradient inkscape:collect="always" xlink:href="#linearGradient4790" id="radialGradient4796" cx="37.030354" cy="12.98915" fx="37.030354" fy="12.98915" r="4.2929163" gradientTransform="matrix(1.74465, 2.31355e-22, -1.663e-22, 1.28383, -26.5826, -3.47836)" gradientUnits="userSpaceOnUse"/>
    <radialGradient inkscape:collect="always" xlink:href="#linearGradient269" id="radialGradient5350" gradientUnits="userSpaceOnUse" gradientTransform="matrix(0.331735, -2.3449e-17, 2.50109e-17, 0.353831, 20.1053, 9.5823)" cx="31.863327" cy="2.3667307" fx="31.863327" fy="2.3667307" r="37.751713"/>
    <radialGradient inkscape:collect="always" xlink:href="#linearGradient259" id="radialGradient5352" gradientUnits="userSpaceOnUse" gradientTransform="matrix(0.148355, 0.0100914, -0.0110444, 0.162365, 25.0601, 12.8171)" cx="30.653816" cy="14.9373" fx="30.653816" fy="14.9373" r="86.70845"/>
    <linearGradient inkscape:collect="always" id="linearGradient2251">
      <stop style="stop-color: rgb(255, 255, 255); stop-opacity: 1;" offset="0" id="stop2253"/>
      <stop style="stop-color: rgb(255, 255, 255); stop-opacity: 0;" offset="1" id="stop2255"/>
    </linearGradient>
    <linearGradient inkscape:collect="always" xlink:href="#linearGradient2251" id="linearGradient8166" gradientUnits="userSpaceOnUse" gradientTransform="matrix(-0.0327794, -0.999463, 0.999463, -0.0327794, -0.709646, 45.0627)" x1="33.396004" y1="36.921333" x2="34.170048" y2="38.070381"/>
    <linearGradient id="linearGradient4114" inkscape:collect="always">
      <stop id="stop4116" offset="0" style="stop-color: rgb(0, 0, 0); stop-opacity: 1;"/>
      <stop id="stop4118" offset="1" style="stop-color: rgb(0, 0, 0); stop-opacity: 0;"/>
    </linearGradient>
    <radialGradient inkscape:collect="always" xlink:href="#linearGradient4114" id="radialGradient24190" gradientUnits="userSpaceOnUse" gradientTransform="scale(1.64399, 0.608276)" cx="15.115514" cy="63.965388" fx="15.115514" fy="63.965388" r="12.289036"/>
    <linearGradient inkscape:collect="always" xlink:href="#linearGradient4126" id="linearGradient3564" gradientUnits="userSpaceOnUse" gradientTransform="matrix(0.217175, 0, 0, 0.217175, 51.5671, -11.5798)" x1="94.693123" y1="112.51051" x2="94.693123" y2="64.052887"/>
    <linearGradient id="linearGradient4092">
      <stop id="stop4094" offset="0" style="stop-color: rgb(55, 120, 174); stop-opacity: 1;"/>
      <stop id="stop4096" offset="1" style="stop-color: rgb(54, 108, 153); stop-opacity: 1;"/>
    </linearGradient>
    <linearGradient inkscape:collect="always" xlink:href="#linearGradient4092" id="linearGradient3562" gradientUnits="userSpaceOnUse" gradientTransform="matrix(0.217175, 0, 0, 0.217175, 51.5671, -11.5798)" x1="59.728527" y1="101.99766" x2="142.62" y2="101.99766"/>
    <linearGradient id="linearGradient4126">
      <stop id="stop4128" offset="0.0000000" style="stop-color: rgb(255, 255, 255); stop-opacity: 1;"/>
      <stop id="stop4130" offset="1.0000000" style="stop-color: rgb(255, 255, 255); stop-opacity: 0.164948;"/>
    </linearGradient>
    <linearGradient inkscape:collect="always" xlink:href="#linearGradient4126" id="linearGradient3560" gradientUnits="userSpaceOnUse" gradientTransform="matrix(0.217175, 0, 0, 0.217175, 58.4071, 15.3119)" x1="94.693123" y1="112.51051" x2="94.693123" y2="64.052887"/>
    <linearGradient id="linearGradient4076">
      <stop id="stop4078" offset="0" style="stop-color: rgb(255, 226, 83); stop-opacity: 1;"/>
      <stop id="stop4080" offset="1" style="stop-color: rgb(255, 202, 28); stop-opacity: 1;"/>
    </linearGradient>
    <linearGradient inkscape:collect="always" xlink:href="#linearGradient4076" id="linearGradient3558" gradientUnits="userSpaceOnUse" gradientTransform="matrix(0.217175, 0, 0, 0.217175, 52.2132, 9.14319)" x1="119.1908" y1="89.130005" x2="116.9651" y2="169.27855"/>
    <inkscape:perspective sodipodi:type="inkscape:persp3d" inkscape:vp_x="0 : 24 : 1" inkscape:vp_y="0 : 1000 : 0" inkscape:vp_z="48 : 24 : 1" inkscape:persp3d-origin="24 : 16 : 1" id="perspective65"/>
    <linearGradient inkscape:collect="always" id="linearGradient4542">
      <stop style="stop-color: rgb(0, 0, 0); stop-opacity: 1;" offset="0" id="stop4544"/>
      <stop style="stop-color: rgb(0, 0, 0); stop-opacity: 0;" offset="1" id="stop4546"/>
    </linearGradient>
    <linearGradient id="linearGradient15662">
      <stop id="stop15664" offset="0.0000000" style="stop-color: rgb(255, 255, 255); stop-opacity: 1;"/>
      <stop id="stop15666" offset="1.0000000" style="stop-color: rgb(248, 248, 248); stop-opacity: 1;"/>
    </linearGradient>
    <radialGradient id="aigrd3" cx="20.8921" cy="64.5679" r="5.257" fx="20.8921" fy="64.5679" gradientUnits="userSpaceOnUse">
      <stop offset="0" style="stop-color: rgb(240, 240, 240);" id="stop15573"/>
      <stop offset="1.0000000" style="stop-color: rgb(154, 154, 154); stop-opacity: 1;" id="stop15575"/>
    </radialGradient>
    <radialGradient id="aigrd2" cx="20.8921" cy="114.5684" r="5.256" fx="20.8921" fy="114.5684" gradientUnits="userSpaceOnUse">
      <stop offset="0" style="stop-color: rgb(240, 240, 240);" id="stop15566"/>
      <stop offset="1.0000000" style="stop-color: rgb(154, 154, 154); stop-opacity: 1;" id="stop15568"/>
    </radialGradient>
    <linearGradient id="linearGradient269">
      <stop id="stop270" offset="0.0000000" style="stop-color: rgb(163, 163, 163); stop-opacity: 1;"/>
      <stop id="stop271" offset="1.0000000" style="stop-color: rgb(76, 76, 76); stop-opacity: 1;"/>
    </linearGradient>
    <linearGradient id="linearGradient259">
      <stop id="stop260" offset="0.0000000" style="stop-color: rgb(250, 250, 250); stop-opacity: 1;"/>
      <stop id="stop261" offset="1.0000000" style="stop-color: rgb(187, 187, 187); stop-opacity: 1;"/>
    </linearGradient>
    <radialGradient inkscape:collect="always" xlink:href="#linearGradient269" id="radialGradient15656" gradientUnits="userSpaceOnUse" gradientTransform="matrix(0.968273, 0, 0, 1.03277, 3.35355, 0.646447)" cx="8.8244190" cy="3.7561285" fx="8.8244190" fy="3.7561285" r="37.751713"/>
    <radialGradient inkscape:collect="always" xlink:href="#linearGradient259" id="radialGradient15658" gradientUnits="userSpaceOnUse" gradientTransform="scale(0.960493, 1.04113)" cx="33.966679" cy="35.736916" fx="33.966679" fy="35.736916" r="86.708450"/>
    <radialGradient inkscape:collect="always" xlink:href="#linearGradient15662" id="radialGradient15668" gradientUnits="userSpaceOnUse" gradientTransform="matrix(0.968273, 0, 0, 1.03277, 3.35355, 0.646447)" cx="8.1435566" cy="7.2678967" fx="8.1435566" fy="7.2678967" r="38.158695"/>
    <radialGradient r="5.256" fy="114.5684" fx="20.8921" cy="114.5684" cx="20.8921" gradientTransform="matrix(0.229703, 0, 0, 0.229703, 4.61353, 3.97981)" gradientUnits="userSpaceOnUse" id="radialGradient2283" xlink:href="#aigrd2" inkscape:collect="always"/>
    <radialGradient r="5.257" fy="64.5679" fx="20.8921" cy="64.5679" cx="20.8921" gradientTransform="matrix(0.229703, 0, 0, 0.229703, 4.61353, 3.97981)" gradientUnits="userSpaceOnUse" id="radialGradient2285" xlink:href="#aigrd3" inkscape:collect="always"/>
    <radialGradient inkscape:collect="always" xlink:href="#linearGradient4542" id="radialGradient4548" cx="24.306795" cy="42.07798" fx="24.306795" fy="42.07798" r="15.821514" gradientTransform="matrix(1, 0, 0, 0.284916, 0, 30.0893)" gradientUnits="userSpaceOnUse"/>
    <radialGradient inkscape:collect="always" xlink:href="#linearGradient3688" id="radialGradient3978" gradientUnits="userSpaceOnUse" gradientTransform="matrix(2.00378,0,0,1.4,27.9881,-17.4)" cx="4.9929786" cy="43.5" fx="4.9929786" fy="43.5" r="2.5"/>
    <radialGradient inkscape:collect="always" xlink:href="#linearGradient3688" id="radialGradient3980" gradientUnits="userSpaceOnUse" gradientTransform="matrix(2.00378,0,0,1.4,-20.0119,-104.4)" cx="4.9929786" cy="43.5" fx="4.9929786" fy="43.5" r="2.5"/>
    <linearGradient inkscape:collect="always" xlink:href="#linearGradient3702" id="linearGradient3982" gradientUnits="userSpaceOnUse" x1="25.058096" y1="47.027729" x2="25.058096" y2="39.999443"/>
    <radialGradient inkscape:collect="always" xlink:href="#linearGradient259" id="radialGradient3984" gradientUnits="userSpaceOnUse" gradientTransform="matrix(0.960493,0,0,1.04113,-146.35909,26.934572)" cx="33.966679" cy="35.736916" fx="33.966679" fy="35.736916" r="86.708450"/>
    <radialGradient inkscape:collect="always" xlink:href="#linearGradient269" id="radialGradient3986" gradientUnits="userSpaceOnUse" gradientTransform="matrix(0.968273,0,0,1.03277,-143.00554,27.581019)" cx="8.8244190" cy="3.7561285" fx="8.8244190" fy="3.7561285" r="37.751713"/>
    <radialGradient inkscape:collect="always" xlink:href="#linearGradient15662" id="radialGradient3988" gradientUnits="userSpaceOnUse" gradientTransform="matrix(0.968273,0,0,1.03277,-143.00554,27.581019)" cx="8.1435566" cy="7.2678967" fx="8.1435566" fy="7.2678967" r="38.158695"/>
    <radialGradient inkscape:collect="always" xlink:href="#linearGradient4790" id="radialGradient3990" gradientUnits="userSpaceOnUse" gradientTransform="matrix(1.74465,0,0,1.28383,-172.94169,23.456212)" cx="37.030354" cy="12.98915" fx="37.030354" fy="12.98915" r="4.2929163"/>
    <radialGradient inkscape:collect="always" xlink:href="#linearGradient259" id="radialGradient3992" gradientUnits="userSpaceOnUse" gradientTransform="matrix(0.148355,1.00914e-2,-1.10444e-2,0.162365,-121.29899,39.751672)" cx="30.653816" cy="14.9373" fx="30.653816" fy="14.9373" r="86.70845"/>
    <radialGradient inkscape:collect="always" xlink:href="#linearGradient269" id="radialGradient3994" gradientUnits="userSpaceOnUse" gradientTransform="matrix(0.331735,0,0,0.353831,-126.25379,36.516872)" cx="31.863327" cy="2.3667307" fx="31.863327" fy="2.3667307" r="37.751713"/>
    <linearGradient inkscape:collect="always" xlink:href="#linearGradient2251" id="linearGradient3996" gradientUnits="userSpaceOnUse" gradientTransform="matrix(-3.27794e-2,-0.999463,0.999463,-3.27794e-2,-147.06874,71.997272)" x1="33.396004" y1="36.921333" x2="34.170048" y2="38.070381"/>
    <radialGradient inkscape:collect="always" xlink:href="#linearGradient4114" id="radialGradient3998" gradientUnits="userSpaceOnUse" gradientTransform="scale(1.64399,0.608276)" cx="15.115514" cy="63.965388" fx="15.115514" fy="63.965388" r="12.289036"/>
    <linearGradient inkscape:collect="always" xlink:href="#linearGradient4076" id="linearGradient4000" gradientUnits="userSpaceOnUse" gradientTransform="matrix(0.217175,0,0,0.217175,52.2132,9.14319)" x1="119.1908" y1="89.130005" x2="116.9651" y2="169.27855"/>
    <linearGradient inkscape:collect="always" xlink:href="#linearGradient4126" id="linearGradient4002" gradientUnits="userSpaceOnUse" gradientTransform="matrix(0.217175,0,0,0.217175,58.4071,15.3119)" x1="94.693123" y1="112.51051" x2="94.693123" y2="64.052887"/>
    <linearGradient inkscape:collect="always" xlink:href="#linearGradient4092" id="linearGradient4004" gradientUnits="userSpaceOnUse" gradientTransform="matrix(0.217175,0,0,0.217175,51.5671,-11.5798)" x1="59.728527" y1="101.99766" x2="142.62" y2="101.99766"/>
    <linearGradient inkscape:collect="always" xlink:href="#linearGradient4126" id="linearGradient4006" gradientUnits="userSpaceOnUse" gradientTransform="matrix(0.217175,0,0,0.217175,51.5671,-11.5798)" x1="94.693123" y1="112.51051" x2="94.693123" y2="64.052887"/>
    <radialGradient inkscape:collect="always" xlink:href="#linearGradient3688" id="radialGradient4059" gradientUnits="userSpaceOnUse" gradientTransform="matrix(2.00378,0,0,1.4,27.9881,-17.4)" cx="4.9929786" cy="43.5" fx="4.9929786" fy="43.5" r="2.5"/>
    <radialGradient inkscape:collect="always" xlink:href="#linearGradient3688" id="radialGradient4061" gradientUnits="userSpaceOnUse" gradientTransform="matrix(2.00378,0,0,1.4,-20.0119,-104.4)" cx="4.9929786" cy="43.5" fx="4.9929786" fy="43.5" r="2.5"/>
    <linearGradient inkscape:collect="always" xlink:href="#linearGradient3702" id="linearGradient4063" gradientUnits="userSpaceOnUse" x1="25.058096" y1="47.027729" x2="25.058096" y2="39.999443"/>
    <radialGradient inkscape:collect="always" xlink:href="#linearGradient259" id="radialGradient4065" gradientUnits="userSpaceOnUse" gradientTransform="matrix(0.960493,0,0,1.04113,-146.35909,26.934572)" cx="33.966679" cy="35.736916" fx="33.966679" fy="35.736916" r="86.708450"/>
    <radialGradient inkscape:collect="always" xlink:href="#linearGradient269" id="radialGradient4067" gradientUnits="userSpaceOnUse" gradientTransform="matrix(0.968273,0,0,1.03277,-143.00554,27.581019)" cx="8.8244190" cy="3.7561285" fx="8.8244190" fy="3.7561285" r="37.751713"/>
    <radialGradient inkscape:collect="always" xlink:href="#linearGradient15662" id="radialGradient4069" gradientUnits="userSpaceOnUse" gradientTransform="matrix(0.968273,0,0,1.03277,-143.00554,27.581019)" cx="8.1435566" cy="7.2678967" fx="8.1435566" fy="7.2678967" r="38.158695"/>
    <radialGradient inkscape:collect="always" xlink:href="#linearGradient4790" id="radialGradient4071" gradientUnits="userSpaceOnUse" gradientTransform="matrix(1.74465,0,0,1.28383,-172.94169,23.456212)" cx="37.030354" cy="12.98915" fx="37.030354" fy="12.98915" r="4.2929163"/>
    <radialGradient inkscape:collect="always" xlink:href="#linearGradient259" id="radialGradient4073" gradientUnits="userSpaceOnUse" gradientTransform="matrix(0.148355,1.00914e-2,-1.10444e-2,0.162365,-121.29899,39.751672)" cx="30.653816" cy="14.9373" fx="30.653816" fy="14.9373" r="86.70845"/>
    <radialGradient inkscape:collect="always" xlink:href="#linearGradient269" id="radialGradient4075" gradientUnits="userSpaceOnUse" gradientTransform="matrix(0.331735,0,0,0.353831,-126.25379,36.516872)" cx="31.863327" cy="2.3667307" fx="31.863327" fy="2.3667307" r="37.751713"/>
    <linearGradient inkscape:collect="always" xlink:href="#linearGradient2251" id="linearGradient4077" gradientUnits="userSpaceOnUse" gradientTransform="matrix(-3.27794e-2,-0.999463,0.999463,-3.27794e-2,-147.06874,71.997272)" x1="33.396004" y1="36.921333" x2="34.170048" y2="38.070381"/>
    <radialGradient inkscape:collect="always" xlink:href="#linearGradient4114" id="radialGradient4079" gradientUnits="userSpaceOnUse" gradientTransform="scale(1.64399,0.608276)" cx="15.115514" cy="63.965388" fx="15.115514" fy="63.965388" r="12.289036"/>
    <linearGradient inkscape:collect="always" xlink:href="#linearGradient2251" id="linearGradient4099" gradientUnits="userSpaceOnUse" gradientTransform="matrix(-3.27794e-2,-0.999463,0.999463,-3.27794e-2,-147.06874,71.997272)" x1="33.396004" y1="36.921333" x2="34.170048" y2="38.070381"/>
    <radialGradient inkscape:collect="always" xlink:href="#linearGradient259" id="radialGradient4102" gradientUnits="userSpaceOnUse" gradientTransform="matrix(0.148355,1.00914e-2,-1.10444e-2,0.162365,-121.29899,39.751672)" cx="30.653816" cy="14.9373" fx="30.653816" fy="14.9373" r="86.70845"/>
    <radialGradient inkscape:collect="always" xlink:href="#linearGradient269" id="radialGradient4104" gradientUnits="userSpaceOnUse" gradientTransform="matrix(0.331735,0,0,0.353831,-126.25379,36.516872)" cx="31.863327" cy="2.3667307" fx="31.863327" fy="2.3667307" r="37.751713"/>
    <radialGradient inkscape:collect="always" xlink:href="#linearGradient4790" id="radialGradient4107" gradientUnits="userSpaceOnUse" gradientTransform="matrix(1.74465,0,0,1.28383,-172.94169,23.456212)" cx="37.030354" cy="12.98915" fx="37.030354" fy="12.98915" r="4.2929163"/>
    <radialGradient inkscape:collect="always" xlink:href="#linearGradient15662" id="radialGradient4110" gradientUnits="userSpaceOnUse" gradientTransform="matrix(0.968273,0,0,1.03277,-143.00554,27.581019)" cx="8.1435566" cy="7.2678967" fx="8.1435566" fy="7.2678967" r="38.158695"/>
    <radialGradient inkscape:collect="always" xlink:href="#linearGradient259" id="radialGradient4113" gradientUnits="userSpaceOnUse" gradientTransform="matrix(0.960493,0,0,1.04113,-146.35909,26.934572)" cx="33.966679" cy="35.736916" fx="33.966679" fy="35.736916" r="86.708450"/>
    <radialGradient inkscape:collect="always" xlink:href="#linearGradient269" id="radialGradient4115" gradientUnits="userSpaceOnUse" gradientTransform="matrix(0.968273,0,0,1.03277,-143.00554,27.581019)" cx="8.8244190" cy="3.7561285" fx="8.8244190" fy="3.7561285" r="37.751713"/>
    <linearGradient inkscape:collect="always" xlink:href="#linearGradient2251" id="linearGradient5114" gradientUnits="userSpaceOnUse" gradientTransform="matrix(-3.27794e-2,-0.999463,0.999463,-3.27794e-2,-0.69374,45.059772)" x1="33.396004" y1="36.921333" x2="34.170048" y2="38.070381"/>
    <radialGradient inkscape:collect="always" xlink:href="#linearGradient259" id="radialGradient5117" gradientUnits="userSpaceOnUse" gradientTransform="matrix(0.148355,1.00914e-2,-1.10444e-2,0.162365,25.07601,12.814172)" cx="30.653816" cy="14.9373" fx="30.653816" fy="14.9373" r="86.70845"/>
    <radialGradient inkscape:collect="always" xlink:href="#linearGradient269" id="radialGradient5119" gradientUnits="userSpaceOnUse" gradientTransform="matrix(0.331735,0,0,0.353831,20.12121,9.579372)" cx="31.863327" cy="2.3667307" fx="31.863327" fy="2.3667307" r="37.751713"/>
    <radialGradient inkscape:collect="always" xlink:href="#linearGradient4790" id="radialGradient5122" gradientUnits="userSpaceOnUse" gradientTransform="matrix(1.74465,0,0,1.28383,-26.56669,-3.481288)" cx="37.030354" cy="12.98915" fx="37.030354" fy="12.98915" r="4.2929163"/>
    <radialGradient inkscape:collect="always" xlink:href="#linearGradient15662" id="radialGradient5125" gradientUnits="userSpaceOnUse" gradientTransform="matrix(0.968273,0,0,1.03277,3.36946,0.643519)" cx="8.1435566" cy="7.2678967" fx="8.1435566" fy="7.2678967" r="38.158695"/>
    <radialGradient inkscape:collect="always" xlink:href="#linearGradient259" id="radialGradient5128" gradientUnits="userSpaceOnUse" gradientTransform="matrix(0.960493,0,0,1.04113,1.591e-2,-2.928e-3)" cx="33.966679" cy="35.736916" fx="33.966679" fy="35.736916" r="86.708450"/>
    <radialGradient inkscape:collect="always" xlink:href="#linearGradient269" id="radialGradient5130" gradientUnits="userSpaceOnUse" gradientTransform="matrix(0.968273,0,0,1.03277,3.36946,0.643519)" cx="8.8244190" cy="3.7561285" fx="8.8244190" fy="3.7561285" r="37.751713"/>
  </defs>
  <sodipodi:namedview inkscape:window-y="25" inkscape:window-x="0" inkscape:window-height="689" inkscape:window-width="1024" inkscape:document-units="px" inkscape:grid-bbox="true" showgrid="false" inkscape:current-layer="layer5" inkscape:cy="29.486519" inkscape:cx="-4.5826821" inkscape:zoom="4" inkscape:pageshadow="2" inkscape:pageopacity="0.0" borderopacity="0.25490196" bordercolor="#666666" pagecolor="#ffffff" id="base" inkscape:showpageshadow="false" showguides="true" inkscape:guide-bbox="true"/>
  <metadata id="metadata4">
    <rdf:RDF>
      <cc:Work rdf:about="">
        <dc:format>image/svg+xml</dc:format>
        <dc:type rdf:resource="http://purl.org/dc/dcmitype/StillImage"/>
        <dc:title>Generic Text</dc:title>
        <dc:subject>
          <rdf:Bag>
            <rdf:li>text</rdf:li>
            <rdf:li>plaintext</rdf:li>
            <rdf:li>regular</rdf:li>
            <rdf:li>document</rdf:li>
          </rdf:Bag>
        </dc:subject>
        <cc:license rdf:resource="http://creativecommons.org/licenses/by-sa/2.0/"/>
        <dc:creator>
          <cc:Agent>
            <dc:title>Jakub Steiner</dc:title>
          </cc:Agent>
        </dc:creator>
        <dc:source>http://jimmac.musichall.cz</dc:source>
      </cc:Work>
      <cc:License rdf:about="http://creativecommons.org/licenses/by/2.0/">
        <cc:permits rdf:resource="http://web.resource.org/cc/Reproduction"/>
        <cc:permits rdf:resource="http://web.resource.org/cc/Distribution"/>
        <cc:requires rdf:resource="http://web.resource.org/cc/Notice"/>
        <cc:requires rdf:resource="http://web.resource.org/cc/Attribution"/>
        <cc:permits rdf:resource="http://web.resource.org/cc/DerivativeWorks"/>
        <cc:requires rdf:resource="http://web.resource.org/cc/ShareAlike"/>
      </cc:License>
    </rdf:RDF>
  </metadata>
  <g inkscape:groupmode="layer" id="layer6" inkscape:label="Shadow"/>
  <g style="display: inline;" inkscape:groupmode="layer" inkscape:label="Base" id="layer1"/>
  <g inkscape:groupmode="layer" id="layer5" inkscape:label="Text" style="display: inline;">
    <g id="g4202" sodipodi:insensitive="true">
      <path transform="translate(0,0.707108)" d="M 40.128309,42.07798 A 15.821514,4.5078058 0 1 1 8.485281,42.07798 A 15.821514,4.5078058 0 1 1 40.128309,42.07798 z" sodipodi:ry="4.5078058" sodipodi:rx="15.821514" sodipodi:cy="42.07798" sodipodi:cx="24.306795" id="path3667" style="opacity:0.783626;fill:url(#radialGradient4548) #000000;fill-opacity:1;fill-rule:evenodd;stroke:none;stroke-width:2;stroke-linecap:round;stroke-linejoin:round;marker:none;stroke-miterlimit:4;stroke-dasharray:none;stroke-dashoffset:0;stroke-opacity:1;visibility:visible;display:inline;overflow:visible" sodipodi:type="arc"/>
      <rect ry="1.1490486" y="3.6464462" x="6.6035528" height="40.920494" width="34.875" id="rect15391" style="fill:url(#radialGradient15658) #000000;fill-opacity:1;fill-rule:nonzero;stroke:url(#radialGradient15656) #000000;stroke-width:1;stroke-linecap:round;stroke-linejoin:round;marker:none;stroke-miterlimit:4;stroke-dashoffset:0;stroke-opacity:1;visibility:visible;display:block;overflow:visible"/>
      <rect rx="0.14904857" ry="0.14904857" y="4.5839462" x="7.6660538" height="38.946384" width="32.775887" id="rect15660" style="fill:none;fill-opacity:1;fill-rule:nonzero;stroke:url(#radialGradient15668) #000000;stroke-width:1;stroke-linecap:round;stroke-linejoin:round;marker:none;stroke-miterlimit:4;stroke-dashoffset:0;stroke-opacity:1;visibility:visible;display:block;overflow:visible"/>
      <g id="g2270" transform="translate(0.646447,-3.79893e-2)" style="display:inline">
        <g transform="matrix(0.229703,0,0,0.229703,4.96708,4.24497)" style="fill:#ffffff;fill-opacity:1;fill-rule:nonzero;stroke:#000000;stroke-miterlimit:4" id="g1440">
          <radialGradient gradientUnits="userSpaceOnUse" fy="114.5684" fx="20.892099" r="5.256" cy="114.5684" cx="20.892099" id="radialGradient1442">
            <stop id="stop1444" style="stop-color: rgb(240, 240, 240);" offset="0"/>
            <stop id="stop1446" style="stop-color: rgb(71, 71, 71);" offset="1"/>
          </radialGradient>
          <path id="path1448" d="M 23.428,113.07 C 23.428,115.043 21.828,116.642 19.855,116.642 C 17.881,116.642 16.282,115.042 16.282,113.07 C 16.282,111.096 17.882,109.497 19.855,109.497 C 21.828,109.497 23.428,111.097 23.428,113.07 z" style="stroke:none"/>
          <radialGradient gradientUnits="userSpaceOnUse" fy="64.567902" fx="20.892099" r="5.257" cy="64.567902" cx="20.892099" id="radialGradient1450">
            <stop id="stop1452" style="stop-color: rgb(240, 240, 240);" offset="0"/>
            <stop id="stop1454" style="stop-color: rgb(71, 71, 71);" offset="1"/>
          </radialGradient>
          <path id="path1456" d="M 23.428,63.07 C 23.428,65.043 21.828,66.643 19.855,66.643 C 17.881,66.643 16.282,65.043 16.282,63.07 C 16.282,61.096 17.882,59.497 19.855,59.497 C 21.828,59.497 23.428,61.097 23.428,63.07 z" style="stroke:none"/>
        </g>
        <path id="path15570" d="M 9.9950109,29.952326 C 9.9950109,30.40553 9.6274861,30.772825 9.1742821,30.772825 C 8.7208483,30.772825 8.3535532,30.405301 8.3535532,29.952326 C 8.3535532,29.498892 8.721078,29.131597 9.1742821,29.131597 C 9.6274861,29.131597 9.9950109,29.499122 9.9950109,29.952326 z" style="fill:url(#radialGradient2283) #000000;fill-rule:nonzero;stroke:none;stroke-miterlimit:4"/>
        <path id="path15577" d="M 9.9950109,18.467176 C 9.9950109,18.92038 9.6274861,19.287905 9.1742821,19.287905 C 8.7208483,19.287905 8.3535532,18.92038 8.3535532,18.467176 C 8.3535532,18.013742 8.721078,17.646447 9.1742821,17.646447 C 9.6274861,17.646447 9.9950109,18.013972 9.9950109,18.467176 z" style="fill:url(#radialGradient2285) #000000;fill-rule:nonzero;stroke:none;stroke-miterlimit:4"/>
      </g>
      <path sodipodi:nodetypes="cc" id="path15672" d="M 11.505723,5.4942766 L 11.505723,43.400869" style="fill:none;fill-opacity:0.75;fill-rule:evenodd;stroke:#000000;stroke-width:0.98855299;stroke-linecap:butt;stroke-linejoin:miter;stroke-miterlimit:4;stroke-opacity:0.0175439;display:inline"/>
      <path sodipodi:nodetypes="cc" id="path15674" d="M 12.5,5.0205154 L 12.5,43.038228" style="fill:none;fill-opacity:0.75;fill-rule:evenodd;stroke:#ffffff;stroke-width:1;stroke-linecap:butt;stroke-linejoin:miter;stroke-miterlimit:4;stroke-opacity:0.20467799;display:inline"/>
      <g id="g2253" transform="matrix(0.909091,0,0,1,2.36363,0)">
        <rect ry="0.065390877" rx="0.15156493" y="9" x="15.000002" height="1" width="22.000004" id="rect15686" style="fill:#9b9b9b;fill-opacity:0.54970799;fill-rule:nonzero;stroke:none;stroke-width:1;stroke-linecap:round;stroke-linejoin:round;marker:none;stroke-miterlimit:4;stroke-dashoffset:0;stroke-opacity:0.0818713;visibility:visible;display:block;overflow:visible"/>
        <rect ry="0.065390877" rx="0.15156493" y="11" x="15.000002" height="1" width="22.000004" id="rect15688" style="fill:#9b9b9b;fill-opacity:0.54970799;fill-rule:nonzero;stroke:none;stroke-width:1;stroke-linecap:round;stroke-linejoin:round;marker:none;stroke-miterlimit:4;stroke-dashoffset:0;stroke-opacity:0.0818713;visibility:visible;display:block;overflow:visible"/>
        <rect ry="0.065390877" rx="0.15156493" y="13" x="15.000002" height="1" width="22.000004" id="rect15690" style="fill:#9b9b9b;fill-opacity:0.54970799;fill-rule:nonzero;stroke:none;stroke-width:1;stroke-linecap:round;stroke-linejoin:round;marker:none;stroke-miterlimit:4;stroke-dashoffset:0;stroke-opacity:0.0818713;visibility:visible;display:block;overflow:visible"/>
        <rect ry="0.065390877" rx="0.15156493" y="15" x="15.000002" height="1" width="22.000004" id="rect15692" style="fill:#9b9b9b;fill-opacity:0.54970799;fill-rule:nonzero;stroke:none;stroke-width:1;stroke-linecap:round;stroke-linejoin:round;marker:none;stroke-miterlimit:4;stroke-dashoffset:0;stroke-opacity:0.0818713;visibility:visible;display:block;overflow:visible"/>
        <rect ry="0.065390877" rx="0.15156493" y="17" x="15.000002" height="1" width="22.000004" id="rect15694" style="fill:#9b9b9b;fill-opacity:0.54970799;fill-rule:nonzero;stroke:none;stroke-width:1;stroke-linecap:round;stroke-linejoin:round;marker:none;stroke-miterlimit:4;stroke-dashoffset:0;stroke-opacity:0.0818713;visibility:visible;display:block;overflow:visible"/>
        <rect ry="0.065390877" rx="0.15156493" y="19" x="15.000002" height="1" width="22.000004" id="rect15696" style="fill:#9b9b9b;fill-opacity:0.54970799;fill-rule:nonzero;stroke:none;stroke-width:1;stroke-linecap:round;stroke-linejoin:round;marker:none;stroke-miterlimit:4;stroke-dashoffset:0;stroke-opacity:0.0818713;visibility:visible;display:block;overflow:visible"/>
        <rect ry="0.065390877" rx="0.15156493" y="21" x="15.000002" height="1" width="22.000004" id="rect15698" style="fill:#9b9b9b;fill-opacity:0.54970799;fill-rule:nonzero;stroke:none;stroke-width:1;stroke-linecap:round;stroke-linejoin:round;marker:none;stroke-miterlimit:4;stroke-dashoffset:0;stroke-opacity:0.0818713;visibility:visible;display:block;overflow:visible"/>
        <rect ry="0.065390877" rx="0.15156493" y="23" x="15.000002" height="1" width="22.000004" id="rect15700" style="fill:#9b9b9b;fill-opacity:0.54970799;fill-rule:nonzero;stroke:none;stroke-width:1;stroke-linecap:round;stroke-linejoin:round;marker:none;stroke-miterlimit:4;stroke-dashoffset:0;stroke-opacity:0.0818713;visibility:visible;display:block;overflow:visible"/>
        <rect ry="0.065390877" rx="0.068204239" y="25" x="14.999992" height="1" width="9.9000053" id="rect15732" style="fill:#9b9b9b;fill-opacity:0.54970799;fill-rule:nonzero;stroke:none;stroke-width:1;stroke-linecap:round;stroke-linejoin:round;marker:none;stroke-miterlimit:4;stroke-dashoffset:0;stroke-opacity:0.0818713;visibility:visible;display:block;overflow:visible"/>
        <rect ry="0.065390877" rx="0.15156493" y="29" x="14.999992" height="1" width="22.000004" id="rect15736" style="fill:#9b9b9b;fill-opacity:0.54970799;fill-rule:nonzero;stroke:none;stroke-width:1;stroke-linecap:round;stroke-linejoin:round;marker:none;stroke-miterlimit:4;stroke-dashoffset:0;stroke-opacity:0.0818713;visibility:visible;display:block;overflow:visible"/>
        <rect ry="0.065390877" rx="0.15156493" y="31" x="14.999992" height="1" width="22.000004" id="rect15738" style="fill:#9b9b9b;fill-opacity:0.54970799;fill-rule:nonzero;stroke:none;stroke-width:1;stroke-linecap:round;stroke-linejoin:round;marker:none;stroke-miterlimit:4;stroke-dashoffset:0;stroke-opacity:0.0818713;visibility:visible;display:block;overflow:visible"/>
        <rect ry="0.065390877" rx="0.15156493" y="33" x="14.999992" height="1" width="22.000004" id="rect15740" style="fill:#9b9b9b;fill-opacity:0.54970799;fill-rule:nonzero;stroke:none;stroke-width:1;stroke-linecap:round;stroke-linejoin:round;marker:none;stroke-miterlimit:4;stroke-dashoffset:0;stroke-opacity:0.0818713;visibility:visible;display:block;overflow:visible"/>
        <rect ry="0.065390877" rx="0.15156493" y="35" x="14.999992" height="1" width="22.000004" id="rect15742" style="fill:#9b9b9b;fill-opacity:0.54970799;fill-rule:nonzero;stroke:none;stroke-width:1;stroke-linecap:round;stroke-linejoin:round;marker:none;stroke-miterlimit:4;stroke-dashoffset:0;stroke-opacity:0.0818713;visibility:visible;display:block;overflow:visible"/>
        <rect ry="0.065390877" rx="0.10609552" y="37" x="14.999992" height="1" width="15.400014" id="rect15744" style="fill:#9b9b9b;fill-opacity:0.54970799;fill-rule:nonzero;stroke:none;stroke-width:1;stroke-linecap:round;stroke-linejoin:round;marker:none;stroke-miterlimit:4;stroke-dashoffset:0;stroke-opacity:0.0818713;visibility:visible;display:block;overflow:visible"/>
      </g>
    </g>
    <g id="g4122" transform="translate(146.375,-26.9375)">
      <path sodipodi:type="arc" style="opacity:0.39607801;fill:url(#radialGradient4079);fill-opacity:1;stroke:none;stroke-opacity:1;display:inline" id="path4112" sodipodi:cx="24.849752" sodipodi:cy="38.908627" sodipodi:rx="20.203051" sodipodi:ry="7.4751287" d="M 45.052803,38.908627 A 20.203051,7.4751287 0 1 1 4.6467018,38.908627 A 20.203051,7.4751287 0 1 1 45.052803,38.908627 z" transform="matrix(0.704551,0,0,0.601996,-130.38289,47.011772)"/>
      <g transform="translate(-190.35909,25.935461)" id="g3545" style="display:inline">
        <path style="fill:url(#linearGradient4000);fill-opacity:1;stroke:none;stroke-opacity:1" id="path2732" d="M 83.18667,43.250526 C 83.18667,44.927117 81.731597,45.776271 80.254807,46.199762 C 78.033107,46.838257 76.2501,46.740528 74.393254,46.199762 C 72.842624,45.748038 71.461391,44.825045 71.461391,43.250526 L 71.461391,37.719079 C 71.461391,36.127186 72.78833,34.76767 74.393254,34.76767 L 80.161057,34.39267 C 82.11346,34.39267 83.389471,33.173971 83.389471,31.173789 L 83.920721,28.5 L 86.118532,28.5 C 87.825527,28.5 88.629075,29.768302 89.050395,31.449236 C 89.636767,33.783867 89.662828,35.529955 89.050395,37.349881 C 88.457507,39.117686 87.823356,40.299117 86.118532,40.299117 L 83.18667,40.299117 L 77.325116,40.299117 L 77.325116,40.287513 L 83.18667,40.287513 L 83.18667,43.250526 z" i:knockout="Off" sodipodi:nodetypes="csscccccccsscccccc"/>
        <path style="fill:#ffffff" id="path2736" d="M 79.522927,43.617552 C 79.522927,43.00729 80.015915,42.512131 80.621833,42.512131 C 81.229923,42.512131 81.720738,43.00729 81.720738,43.617552 C 81.720738,44.229985 81.229923,44.725144 80.621833,44.725144 C 80.015915,44.725144 79.522927,44.229985 79.522927,43.617552 z" i:knockout="Off"/>
        <path style="opacity:0.83720901;fill:url(#linearGradient4002);fill-opacity:1;stroke:none;stroke-opacity:1;display:inline" d="M 83.914374,28.499732 L 83.914374,31.093482 C 83.914374,32.734256 80.532681,34.780982 80.258124,34.780982 L 74.508124,34.780982 L 73.270251,34.906915 C 72.009258,35.230124 72.161456,36.054966 71.789374,37.593482 C 71.650693,38.163304 71.547106,38.696572 71.476874,39.187232 C 71.471857,39.222279 71.48153,39.24618 71.476874,39.280982 L 71.476874,40.905982 C 75.312553,36.625946 79.40435,36.303035 81.445624,36.312232 C 85.519083,36.330185 87.437606,35.328515 89.383124,33.124732 C 89.376972,33.081453 89.389779,33.043381 89.383124,32.999732 C 89.308257,32.508684 89.176805,31.984411 89.039374,31.437232 C 88.84188,30.649294 88.583523,29.955706 88.164374,29.437232 C 88.155991,29.426863 88.141618,29.416208 88.133124,29.405982 C 88.128313,29.402442 88.106706,29.4095 88.101874,29.405982 C 88.087594,29.3891 88.085215,29.359957 88.070624,29.343482 C 88.041267,29.32277 88.038191,29.300891 88.008124,29.280982 C 88.00067,29.272951 87.984407,29.288908 87.976874,29.280982 C 87.532518,28.992954 86.992838,28.777563 86.445624,28.687232 C 85.94965,28.605461 85.451896,28.542746 84.945624,28.499732 L 84.633124,28.499732 L 83.914374,28.499732 z" id="path2742" sodipodi:nodetypes="cccccssccscsssssssssccc"/>
        <path sodipodi:nodetypes="csscccccccsscccccc" i:knockout="Off" d="M 83.480513,43.250526 C 83.480513,44.927117 81.731597,45.776271 80.254807,46.199762 C 78.033107,46.838257 76.2501,46.740528 74.393254,46.199762 C 72.842624,45.748038 71.461391,44.825045 71.461391,43.250526 L 71.461391,37.425236 C 71.461391,35.539033 72.830307,34.515804 74.393254,34.515804 L 79.606394,34.484554 C 81.558797,34.484554 83.534846,32.486471 83.534846,30.486289 L 83.534846,28.5 L 86.118532,28.5 C 87.825527,28.5 88.629075,29.768302 89.050395,31.449236 C 89.636767,33.783867 89.662828,35.529955 89.050395,37.349881 C 88.457507,39.117686 87.823356,40.509005 86.118532,40.509005 L 83.480513,40.509005 L 77.325116,40.509005 L 77.325116,40.497401 L 83.480513,40.51839 L 83.480513,43.250526 z" id="path2744" style="fill:none;fill-opacity:1;stroke:#bb9400;stroke-opacity:1"/>
        <path style="fill:#ffffff;fill-opacity:0.38356198;stroke:none;stroke-width:3;stroke-miterlimit:4;stroke-dasharray:none;stroke-opacity:1" d="M 84.036575,28.999732 L 84.036575,30.468482 C 84.036575,32.754223 81.686126,35.029115 79.445624,35.029116 L 74.383124,35.029116 C 73.060564,35.029116 71.976875,36.404442 71.976874,37.718482 L 71.976874,43.249732 C 71.976874,43.890785 72.205319,44.368849 72.664374,44.780982 C 73.123429,45.193115 73.81358,45.507046 74.539374,45.718482 C 76.329247,46.239743 77.961446,46.33362 80.101874,45.718482 C 80.796976,45.519152 81.721747,45.141602 82.186995,44.738771 C 82.652243,44.33594 82.989467,43.943382 82.989467,43.249732 L 82.989467,41.02212 L 77.320624,41.02212 L 76.820624,41.02212 L 76.820624,40.52212 L 76.820624,40.49087 L 76.820624,39.99087 L 77.320624,39.99087 L 83.195624,39.99087 L 83.695624,39.99087 L 83.695624,40.02212 L 86.133124,40.02212 C 86.870037,40.02212 87.230352,39.732154 87.596394,39.308151 C 87.962436,38.884148 88.280589,38.052018 88.570624,37.187232 C 89.150856,35.462995 89.143498,33.843132 88.570624,31.562232 C 88.370979,30.765712 88.081075,30.122434 87.695624,29.687232 C 87.310173,29.25203 86.862787,28.999732 86.133124,28.999732 L 84.036575,28.999732 z M 85.036575,29.999732 L 86.133124,29.999732 C 86.452337,29.999732 86.869139,30.257125 86.945624,30.343482 C 87.168126,30.594702 87.42426,31.103607 87.601874,31.812232 C 88.147758,33.985671 88.148955,35.341872 87.633124,36.874732 C 87.355912,37.701286 87.068191,38.479001 86.851874,38.70962 C 86.656524,38.917885 86.243793,39.02212 86.133124,39.02212 L 84.695624,39.02212 L 84.695624,38.99087 L 83.195624,38.99087 L 77.320624,38.99087 L 75.820624,38.99087 L 75.820624,40.49087 L 75.820624,40.52212 L 75.820624,42.02212 L 77.320624,42.02212 L 81.989467,42.02212 L 81.989467,43.249732 C 81.989467,43.695905 81.392158,43.973237 81.289374,44.062232 C 80.990365,44.321126 80.460389,44.575232 79.851874,44.749732 C 77.873986,45.318158 76.47655,45.231984 74.820624,44.749732 C 74.193873,44.567149 73.650766,44.299323 73.351874,44.030982 C 73.344869,44.024693 73.327678,44.006304 73.320624,43.999732 C 73.278488,43.959234 73.226633,43.908405 73.195624,43.874732 C 73.166328,43.839526 73.122714,43.781293 73.101874,43.749732 C 73.090218,43.730751 73.054029,43.680675 73.039374,43.655982 C 73.024201,43.620947 73.017168,43.570081 73.008124,43.530982 C 73.001748,43.49897 72.980215,43.441201 72.976874,43.405982 C 72.97352,43.36087 72.976874,43.300802 72.976874,43.249732 L 72.976874,37.718482 C 72.976874,36.960149 73.625291,36.029116 74.383124,36.029116 L 79.445624,36.029116 C 82.262321,36.029115 85.036575,33.325342 85.036575,30.468482 L 85.036575,29.999732 z" id="path2746" sodipodi:nodetypes="ccccccssssccccccccccccssssccccssssccccccccccccsssssssssscccccc"/>
        <g id="g3534" transform="translate(3.8609e-2,19.8546)">
          <path sodipodi:nodetypes="csscccccccssccccccc" i:knockout="Off" d="M 70.815277,4.82561 C 70.815277,3.149019 71.26483,2.236884 73.74714,1.802533 C 75.432418,1.507175 77.593309,1.470256 79.608693,1.802533 C 81.200586,2.065315 82.540556,3.251091 82.540556,4.82561 L 82.540556,10.357057 C 82.540556,11.979354 81.239677,13.308465 79.608693,13.308465 L 74.292849,13.602308 C 72.303526,13.602308 70.249136,15.340423 70.249136,17.258078 L 70.081226,19.576135 L 68.065842,19.576135 C 66.361018,19.576135 65.368528,18.346925 64.951552,16.626899 C 64.389069,14.316157 64.412958,12.939268 64.951552,10.726254 C 65.418479,8.795568 66.910471,7.777018 68.615294,7.777018 L 70.815277,7.777018 L 76.679002,7.777018 L 76.679002,7.757373 L 70.815277,7.757373 L 70.815277,4.82561 L 70.815277,4.82561 z" id="path2730" style="fill:url(#linearGradient4004);fill-opacity:1;stroke:none;stroke-opacity:1"/>
          <path i:knockout="Off" d="M 72.281209,4.458584 C 72.281209,3.84615 72.772024,3.350991 73.380114,3.350991 C 73.986032,3.350991 74.47902,3.84615 74.47902,4.458584 C 74.47902,5.068845 73.986032,5.564004 73.380114,5.564004 C 72.772024,5.564004 72.281209,5.068845 72.281209,4.458584 z" id="path2734" style="fill:#ffffff"/>
          <path sodipodi:nodetypes="csccccccscsccsc" id="path2738" d="M 76.17451,1.558 C 75.307143,1.579011 74.474319,1.678781 73.73701,1.808 C 71.2547,2.242351 70.830761,3.16266 70.83076,4.83925 L 70.83076,7.7455 L 76.67451,7.7455 L 76.67451,7.77675 L 70.83076,7.77675 L 68.61201,7.77675 C 66.907187,7.77675 65.422687,8.783563 64.95576,10.71425 C 64.638775,12.016701 64.495317,13.036458 64.54951,14.1205 C 68.411132,9.7436 72.554663,9.423731 74.61201,9.433 C 78.68547,9.450954 80.603992,8.449283 82.54951,6.2455 L 82.54951,4.83925 C 82.54951,3.264731 81.203905,2.070781 79.61201,1.808 C 78.478356,1.621094 77.289696,1.530986 76.17451,1.558 z" style="opacity:0.37674399;fill:url(#linearGradient4006);fill-opacity:1;stroke:none;stroke-opacity:1"/>
          <path sodipodi:nodetypes="csscccccccsscccccc" i:knockout="Off" d="M 70.480878,4.8948302 C 70.480878,3.2182392 72.229794,2.3690852 73.706584,1.9455942 C 75.928284,1.3070992 77.711291,1.4048282 79.568137,1.9455942 C 81.118767,2.3973182 82.5,3.3203112 82.5,4.8948302 L 82.5,10.426277 C 82.5,12.01817 81.173061,13.629552 79.568137,13.629552 L 74.106863,13.629552 C 72.573661,13.629552 70.426545,15.317001 70.426545,17.317183 L 70.426545,19.645356 L 67.842859,19.645356 C 66.135864,19.645356 65.332316,18.377054 64.910996,16.69612 C 64.324624,14.361489 64.298563,12.615401 64.910996,10.795475 C 65.503884,9.0276702 66.138035,7.6363512 67.842859,7.6363512 L 70.480878,7.6363512 L 76.636275,7.6363512 L 76.636275,7.6479552 L 70.480878,7.6269662 L 70.480878,4.8948302 z" id="path3530" style="fill:none;fill-opacity:1;stroke:#274e70;stroke-opacity:1"/>
          <path style="fill:#ffffff;fill-opacity:0.164706;stroke:none;stroke-width:3;stroke-miterlimit:4;stroke-dasharray:none;stroke-opacity:1" d="M 69.924816,19.145624 L 69.924816,17.429673 C 69.924816,15.143932 72.008474,13.116241 74.248976,13.11624 L 79.578267,13.11624 C 80.900827,13.11624 81.984516,11.740914 81.984517,10.426874 L 81.984517,4.8956242 C 81.984517,4.2545712 81.756072,3.7765072 81.297017,3.3643742 C 80.837962,2.9522412 80.147811,2.6383102 79.422017,2.4268742 C 77.632144,1.9056132 75.999945,1.8117362 73.859517,2.4268742 C 73.164415,2.6262042 72.239644,3.0037542 71.774396,3.4065852 C 71.309148,3.8094162 70.971924,4.2019742 70.971924,4.8956242 L 70.971924,7.1232362 L 76.640767,7.1232362 L 77.140767,7.1232362 L 77.140767,7.6232362 L 77.140767,7.6544862 L 77.140767,8.1544862 L 76.640767,8.1544862 L 70.765767,8.1544862 L 70.265767,8.1544862 L 70.265767,8.1232362 L 67.828267,8.1232362 C 67.091354,8.1232362 66.731039,8.4132022 66.364997,8.8372052 C 65.998955,9.2612082 65.680802,10.093338 65.390767,10.958124 C 64.810535,12.682361 64.817893,14.302224 65.390767,16.583124 C 65.590412,17.379644 65.880316,18.022922 66.265767,18.458124 C 66.651218,18.893326 67.098604,19.145624 67.828267,19.145624 L 69.924816,19.145624 z M 68.924816,18.145624 L 67.828267,18.145624 C 67.509054,18.145624 67.092252,17.888231 67.015767,17.801874 C 66.793265,17.550654 66.537131,17.041749 66.359517,16.333124 C 65.813633,14.159685 65.812436,12.803484 66.328267,11.270624 C 66.605479,10.44407 66.8932,9.6663552 67.109517,9.4357362 C 67.304867,9.2274712 67.717598,9.1232362 67.828267,9.1232362 L 69.265767,9.1232362 L 69.265767,9.1544862 L 70.765767,9.1544862 L 76.640767,9.1544862 L 78.140767,9.1544862 L 78.140767,7.6544862 L 78.140767,7.6232362 L 78.140767,6.1232362 L 76.640767,6.1232362 L 71.971924,6.1232362 L 71.971924,4.8956242 C 71.971924,4.4494512 72.569233,4.1721192 72.672017,4.0831242 C 72.971026,3.8242302 73.501002,3.5701242 74.109517,3.3956242 C 76.087405,2.8271982 77.484841,2.9133722 79.140767,3.3956242 C 79.767518,3.5782072 80.310625,3.8460332 80.609517,4.1143742 C 80.616522,4.1206632 80.633713,4.1390522 80.640767,4.1456242 C 80.682903,4.1861222 80.734758,4.2369512 80.765767,4.2706242 C 80.795063,4.3058302 80.838677,4.3640632 80.859517,4.3956242 C 80.871173,4.4146052 80.907362,4.4646812 80.922017,4.4893742 C 80.93719,4.5244092 80.944223,4.5752752 80.953267,4.6143742 C 80.959643,4.6463862 80.981176,4.7041552 80.984517,4.7393742 C 80.987871,4.7844862 80.984517,4.8445542 80.984517,4.8956242 L 80.984517,10.426874 C 80.984517,11.185207 80.3361,12.11624 79.578267,12.11624 L 74.248976,12.11624 C 71.432279,12.116241 68.924816,14.572813 68.924816,17.429673 L 68.924816,18.145624 z" id="path3532" sodipodi:nodetypes="ccccccssssccccccccccccssssccccssssccccccccccccsssssssssscccccc"/>
        </g>
      </g>
    </g>
  </g>
</svg>